<?xml version="1.0" encoding="utf-8"?>
<!-- Generator: Adobe Illustrator 19.0.0, SVG Export Plug-In . SVG Version: 6.00 Build 0)  -->
<svg version="1.1" id="Layer_1" xmlns="http://www.w3.org/2000/svg" xmlns:xlink="http://www.w3.org/1999/xlink" x="0px" y="0px"
	 viewBox="0 0 216.5 59.3" style="enable-background:new 0 0 216.5 59.3;" xml:space="preserve">
<style type="text/css">
	.st0{opacity:0.4;}
	.st1{fill:#010101;}
	.st2{fill:#E6E6E5;}
	.st3{fill:#6B3C6C;}
	.st4{fill:#333333;}
	.st5{fill:#989898;}
</style>
<g>
	<g>
		<g>
			<g class="st0">
				<rect x="18.5" y="2.1" class="st1" width="6.2" height="6.2"/>
			</g>
			<g>
				<rect x="18.5" y="1.1" class="st2" width="6.2" height="6.2"/>
			</g>
		</g>
		<g>
			<g class="st0">
				<rect x="49.4" y="2.1" class="st1" width="6.2" height="6.2"/>
			</g>
			<g>
				<rect x="49.4" y="1.1" class="st2" width="6.2" height="6.2"/>
			</g>
		</g>
		<g>
			<g class="st0">
				<polygon class="st1" points="6,20.9 0,20.9 0,26.8 0,32.9 6.2,32.9 10,32.9 10,26.9 6,26.9 				"/>
			</g>
			<g>
				<polygon class="st2" points="6,19.9 0,19.9 0,25.8 0,31.9 6.2,31.9 10,31.9 10,25.9 6,25.9 				"/>
			</g>
		</g>
		<g>
			<g class="st0">
				<polygon class="st1" points="68,27 64,27 64,33 68,33 68,39 74,39 74,33 74,27 				"/>
			</g>
			<g>
				<polygon class="st2" points="68,26 64,26 64,32 68,32 68,38 74,38 74,32 74,26 				"/>
			</g>
		</g>
		<g>
			<g class="st0">
				<path class="st1" d="M55.5,14.5l-6,0l0-6l-6.2,0l-6.2,0l-6.2,0l-6.4,0l0,6l-6,0l0,6l-6,0l0,6.4l0,6.2l0,6.2l0,6.3l6,0l0,6l6,0
					l0,6l6,0l0-6l6.6,0l6.4,0l0,6l6,0l0-6l6,0l0-6l6,0l0-6.3l0-6.2l0-6.2l0-6.4l-6,0L55.5,14.5z M30.5,33.4l-6,0l0-7l6,0L30.5,33.4z
					 M49.5,33.5l-6,0l0-7l6,0L49.5,33.5z"/>
			</g>
			<g>
				<g>
					<path class="st2" d="M55.5,13.5l-6,0l0-6l-6.2,0l-6.2,0l-6.2,0l-6.4,0l0,6l-6,0l0,6l-6,0l0,6.4l0,6.2l0,6.2l0,6.3l6,0l0,6l6,0
						l0,6l6,0l0-6l6.6,0l6.4,0l0,6l6,0l0-6l6,0l0-6l6,0l0-6.3l0-6.2l0-6.2l0-6.4l-6,0L55.5,13.5z M30.5,32.4l-6,0l0-7l6,0L30.5,32.4
						z M49.5,32.5l-6,0l0-7l6,0L49.5,32.5z"/>
				</g>
			</g>
		</g>
	</g>
	<g>
		<path class="st3" d="M85.9,24.8l0-24.9l14.2,0l0,3.6l-10.7,0l0,7.1l10.7,0l0,3.6l-10.7,0l0,7.1l10.7,0l0,3.6L85.9,24.8z
			 M100.1,10.6l0-7.1l3.6,0l0,7.1L100.1,10.6z M100.1,21.3l0-7.1l3.6,0l0,7.1L100.1,21.3z"/>
		<path class="st3" d="M111.1,24.9l0-3.6l3.6,0l0-17.8l-3.6,0l0-3.6l10.7,0l0,3.6l-3.6,0l0,17.8l3.6,0l0,3.6L111.1,24.9z"/>
		<path class="st3" d="M129.1,21.3l0-17.8l3.6,0l0,17.8L129.1,21.3z M132.7,3.6l0-3.6l10.7,0l0,3.6L132.7,3.6z M132.7,24.9l0-3.6
			l10.7,0l0,3.6L132.7,24.9z M143.3,21.3l0-7.1l-7.1,0l0-3.6l10.7,0l0,10.7L143.3,21.3z M143.4,7.1l0-3.6l3.6,0l0,3.6L143.4,7.1z"/>
	</g>
	<g>
		<path class="st4" d="M155.9,21.6l0-7.6l2.5,0l0,7.6L155.9,21.6z M166.1,26.7l0-2.5l-7.6,0l0-2.5l7.6,0l0-7.6l-7.6,0l0-2.5l10.2,0
			l0,15.2L166.1,26.7z M158.5,29.2l0-2.5l7.6,0l0,2.5L158.5,29.2z"/>
		<path class="st4" d="M171.4,21.6l0-7.6l2.5,0l0,2.5l7.6,0l0-2.5l2.5,0l0,5.1l-10.2,0l0,2.5L171.4,21.6z M174,14l0-2.5l7.6,0l0,2.5
			L174,14z M173.9,24.2l0-2.5l7.6,0l0,2.5L173.9,24.2z"/>
		<path class="st4" d="M186.9,21.6l0-7.6l2.5,0l0,2.5l7.6,0l0-2.5l2.5,0l0,5.1l-10.2,0l0,2.5L186.9,21.6z M189.4,14l0-2.5l7.6,0
			l0,2.5L189.4,14z M189.4,24.2l0-2.5l7.6,0l0,2.5L189.4,24.2z"/>
		<path class="st4" d="M202.4,24.2l0-17.8l2.5,0l0,10.2l5.1,0l0,2.5l-5.1,0l0,5.1L202.4,24.2z M210,16.5l0-2.5l2.5,0l0,2.5L210,16.5
			z M210,21.6l0-2.5l2.5,0l0,2.5L210,21.6z M212.5,14l0-2.5l2.5,0l0,2.5L212.5,14z M212.5,24.2l0-2.5l2.5,0l0,2.5L212.5,24.2z"/>
	</g>
	<g>
		<path class="st5" d="M90.8,42c-0.6,0-1.1-0.1-1.6-0.3c-0.5-0.2-0.9-0.5-1.3-0.9c-0.4-0.4-0.7-0.9-0.9-1.5c-0.2-0.6-0.3-1.3-0.3-2
			c0-0.8,0.1-1.4,0.3-2c0.2-0.6,0.5-1.1,0.9-1.5c0.4-0.4,0.8-0.7,1.3-0.9c0.5-0.2,1-0.3,1.6-0.3c0.3,0,0.6,0,0.9,0.1
			c0.3,0,0.5,0.1,0.7,0.2c0.2,0.1,0.4,0.1,0.5,0.2c0.1,0.1,0.3,0.1,0.3,0.2L93.1,34c-0.2-0.1-0.5-0.3-0.8-0.4
			c-0.3-0.1-0.7-0.2-1.2-0.2c-0.6,0-1.1,0.1-1.5,0.3c-0.4,0.2-0.8,0.5-1.1,0.8c-0.3,0.3-0.5,0.8-0.6,1.2c-0.1,0.5-0.2,1-0.2,1.6
			c0,0.6,0.1,1.1,0.2,1.6c0.1,0.5,0.4,0.9,0.6,1.2c0.3,0.3,0.6,0.6,1,0.8c0.4,0.2,0.9,0.3,1.4,0.3c0.6,0,1.1-0.1,1.4-0.2
			c0.4-0.1,0.7-0.2,0.9-0.3l0.2,0.8c-0.1,0-0.2,0.1-0.3,0.1c-0.1,0.1-0.3,0.1-0.6,0.2c-0.2,0.1-0.5,0.1-0.8,0.1
			C91.5,42,91.1,42,90.8,42z"/>
		<path class="st5" d="M96.9,34.9c0.4,0,0.8,0.1,1.1,0.2c0.3,0.1,0.6,0.3,0.7,0.5c0.2,0.2,0.3,0.5,0.4,0.8c0.1,0.3,0.1,0.6,0.1,1
			l0,4.2c-0.1,0-0.2,0.1-0.4,0.1c-0.2,0-0.4,0.1-0.6,0.1c-0.2,0-0.5,0.1-0.7,0.1c-0.3,0-0.5,0-0.8,0c-0.4,0-0.7,0-1-0.1
			c-0.3-0.1-0.6-0.2-0.8-0.4c-0.2-0.2-0.4-0.4-0.5-0.7c-0.1-0.3-0.2-0.6-0.2-1c0-0.4,0.1-0.7,0.2-0.9c0.1-0.3,0.3-0.5,0.6-0.6
			c0.3-0.2,0.6-0.3,0.9-0.4c0.3-0.1,0.7-0.1,1.1-0.1c0.1,0,0.2,0,0.4,0c0.1,0,0.3,0,0.4,0.1s0.2,0,0.3,0.1c0.1,0,0.2,0,0.2,0.1v-0.4
			c0-0.2,0-0.5-0.1-0.7c0-0.2-0.1-0.4-0.2-0.6c-0.1-0.2-0.3-0.3-0.5-0.4c-0.2-0.1-0.5-0.2-0.8-0.2c-0.5,0-0.9,0-1.1,0.1
			c-0.2,0.1-0.4,0.1-0.5,0.2l-0.1-0.7c0.1-0.1,0.4-0.1,0.7-0.2C96.1,35,96.5,34.9,96.9,34.9z M97,41.2c0.3,0,0.6,0,0.9,0
			c0.2,0,0.5,0,0.6-0.1l0-2.4c-0.1,0-0.2-0.1-0.5-0.1c-0.2,0-0.5-0.1-0.9-0.1c-0.2,0-0.4,0-0.6,0c-0.2,0-0.4,0.1-0.6,0.2
			c-0.2,0.1-0.3,0.2-0.5,0.4c-0.1,0.2-0.2,0.4-0.2,0.7c0,0.3,0,0.5,0.1,0.6c0.1,0.2,0.2,0.3,0.4,0.4c0.2,0.1,0.3,0.2,0.5,0.2
			C96.5,41.2,96.7,41.2,97,41.2z"/>
		<path class="st5" d="M104.7,40.9c-0.1-0.1-0.1-0.3-0.2-0.5c-0.1-0.2-0.2-0.5-0.3-0.8c-0.1-0.3-0.3-0.6-0.4-0.9
			c-0.1-0.3-0.3-0.6-0.4-0.9c-0.1-0.3-0.3-0.6-0.4-0.8c-0.1-0.3-0.2-0.5-0.3-0.6c-0.1,1-0.2,1.9-0.2,2.8c-0.1,0.9-0.1,1.8-0.1,2.7
			h-0.8c0-1.1,0.1-2.2,0.2-3.4c0.1-1.1,0.2-2.2,0.3-3.3h0.9c0.1,0.2,0.3,0.4,0.4,0.8c0.2,0.3,0.4,0.7,0.6,1.2
			c0.2,0.4,0.4,0.9,0.7,1.4c0.2,0.5,0.5,1,0.7,1.5c0.2-0.5,0.5-1,0.7-1.5c0.2-0.5,0.5-1,0.7-1.4c0.2-0.4,0.4-0.8,0.6-1.2
			c0.2-0.3,0.3-0.6,0.4-0.8h0.9c0.1,1.1,0.2,2.2,0.3,3.3c0.1,1.1,0.1,2.3,0.2,3.4H108c0-0.9-0.1-1.8-0.1-2.7
			c-0.1-0.9-0.1-1.8-0.2-2.8c-0.1,0.2-0.2,0.4-0.3,0.6c-0.1,0.3-0.3,0.5-0.4,0.8c-0.1,0.3-0.3,0.6-0.4,0.9c-0.1,0.3-0.3,0.6-0.4,0.9
			c-0.1,0.3-0.2,0.5-0.3,0.8c-0.1,0.2-0.2,0.4-0.2,0.5L104.7,40.9z"/>
		<path class="st5" d="M110.9,35.1l0.8,0l0,2.7c0.2,0,0.4-0.1,0.7-0.1c0.3,0,0.6-0.1,0.9-0.1c0.3,0,0.7,0,1,0.1
			c0.3,0.1,0.6,0.2,0.8,0.4c0.2,0.2,0.4,0.4,0.6,0.7c0.1,0.3,0.2,0.6,0.2,1c0,0.4-0.1,0.7-0.2,1c-0.1,0.3-0.3,0.5-0.6,0.7
			c-0.2,0.2-0.5,0.3-0.9,0.4c-0.3,0.1-0.7,0.1-1.1,0.1c-0.2,0-0.5,0-0.7,0c-0.2,0-0.4,0-0.7-0.1c-0.2,0-0.4-0.1-0.6-0.1
			c-0.2,0-0.3-0.1-0.4-0.1L110.9,35.1z M113.2,41.2c0.5,0,1-0.1,1.3-0.3c0.3-0.2,0.5-0.6,0.5-1.1c0-0.2,0-0.5-0.1-0.6
			c-0.1-0.2-0.2-0.3-0.4-0.4c-0.2-0.1-0.3-0.2-0.6-0.3c-0.2-0.1-0.4-0.1-0.7-0.1c-0.3,0-0.5,0-0.8,0c-0.3,0-0.5,0.1-0.8,0.2l0,2.5
			c0.1,0,0.3,0.1,0.6,0.1C112.6,41.2,112.9,41.2,113.2,41.2z M118.2,41.8l-0.8,0l0-6.7l0.8,0L118.2,41.8z"/>
		<path class="st5" d="M125,36.2c-0.3,0.3-0.6,0.7-0.9,1.2c-0.3,0.5-0.7,1-1,1.5c-0.4,0.5-0.7,1.1-1,1.6c-0.3,0.5-0.6,1-0.8,1.4
			h-0.8l0-6.7h0.8l0,5.4c0.2-0.4,0.5-0.8,0.8-1.3c0.3-0.5,0.6-1,1-1.5c0.3-0.5,0.7-1,1-1.4c0.4-0.5,0.7-0.8,1-1.2l0.8,0l0,6.7
			l-0.8,0L125,36.2z M123.2,34c-0.5,0-0.9-0.1-1.2-0.4c-0.3-0.3-0.5-0.7-0.6-1.1l0.7-0.2c0.1,0.3,0.2,0.5,0.3,0.7
			c0.2,0.2,0.4,0.3,0.8,0.3c0.3,0,0.6-0.1,0.8-0.3c0.2-0.2,0.3-0.4,0.3-0.7l0.7,0.2c-0.1,0.5-0.3,0.9-0.6,1.1
			C124,33.8,123.6,34,123.2,34z"/>
		<path class="st5" d="M136.2,41.1h0.8l0,2.6h-0.8l0-1.9l-5.2,0l0,1.9h-0.8l0-2.6h0.7c0.3-0.5,0.5-0.9,0.7-1.3
			c0.2-0.4,0.3-0.8,0.4-1.3c0.1-0.4,0.2-0.9,0.2-1.4c0-0.5,0-1,0-1.6v-0.5l4.1,0L136.2,41.1z M132.9,35.8c0,0.5,0,0.9,0,1.4
			c0,0.5-0.1,0.9-0.2,1.3c-0.1,0.4-0.2,0.9-0.4,1.3c-0.2,0.4-0.4,0.9-0.6,1.3l3.7,0l0-5.3L132.9,35.8z"/>
		<path class="st5" d="M139.4,44.2h-0.8l0-8.9c0.3-0.1,0.6-0.2,1-0.2c0.4-0.1,0.9-0.1,1.5-0.1c0.5,0,0.9,0.1,1.3,0.2
			c0.4,0.2,0.8,0.4,1,0.7c0.3,0.3,0.5,0.7,0.7,1.1c0.2,0.4,0.2,0.9,0.2,1.5c0,0.5-0.1,1-0.2,1.4c-0.1,0.4-0.3,0.8-0.6,1.1
			c-0.3,0.3-0.6,0.5-1,0.7c-0.4,0.2-0.8,0.3-1.3,0.3c-0.4,0-0.8-0.1-1.2-0.2c-0.3-0.1-0.6-0.2-0.7-0.4L139.4,44.2z M139.4,40.6
			c0.1,0.1,0.2,0.1,0.3,0.2c0.1,0.1,0.3,0.1,0.4,0.2c0.2,0.1,0.3,0.1,0.5,0.1c0.2,0,0.4,0.1,0.6,0.1c0.4,0,0.8-0.1,1-0.2
			c0.3-0.1,0.5-0.3,0.7-0.6c0.2-0.2,0.3-0.5,0.4-0.9c0.1-0.3,0.1-0.7,0.1-1.1c0-0.9-0.2-1.6-0.7-2c-0.4-0.5-1-0.7-1.8-0.7
			c-0.4,0-0.8,0-1,0.1c-0.3,0-0.4,0.1-0.6,0.1L139.4,40.6z"/>
		<path class="st5" d="M147.9,42c-0.3-0.5-0.6-1.1-0.8-1.7c-0.3-0.6-0.5-1.1-0.7-1.7c-0.2-0.6-0.4-1.2-0.6-1.8
			c-0.2-0.6-0.4-1.2-0.5-1.7l0.9,0c0.1,0.4,0.2,0.9,0.4,1.3c0.1,0.5,0.3,1,0.5,1.5c0.2,0.5,0.4,1,0.6,1.6c0.2,0.5,0.5,1.1,0.7,1.6
			c0.2-0.5,0.4-1,0.5-1.5c0.1-0.5,0.3-1,0.4-1.4c0.1-0.5,0.2-1,0.4-1.4c0.1-0.5,0.2-1,0.4-1.6l0.8,0c-0.3,1.3-0.6,2.5-1,3.7
			c-0.4,1.2-0.7,2.3-1.2,3.3c-0.2,0.4-0.3,0.7-0.5,1c-0.2,0.3-0.4,0.5-0.6,0.7c-0.2,0.2-0.5,0.3-0.7,0.4c-0.3,0.1-0.6,0.1-1,0.1
			c-0.2,0-0.4,0-0.6-0.1c-0.2-0.1-0.3-0.1-0.3-0.1l0.2-0.7c0,0,0.1,0.1,0.3,0.1c0.2,0,0.3,0.1,0.5,0.1c0.2,0,0.5,0,0.7-0.1
			c0.2-0.1,0.4-0.1,0.5-0.3c0.2-0.1,0.3-0.3,0.4-0.5C147.7,42.5,147.8,42.3,147.9,42z"/>
		<path class="st5" d="M160,35.1c-0.2,0.2-0.4,0.5-0.6,0.8c-0.2,0.3-0.5,0.6-0.7,0.8c-0.2,0.3-0.5,0.5-0.7,0.8
			c-0.2,0.3-0.5,0.5-0.7,0.7c0.3,0.2,0.6,0.5,0.9,0.8c0.3,0.3,0.6,0.6,0.9,0.9c0.3,0.3,0.5,0.6,0.8,1c0.2,0.3,0.4,0.6,0.6,0.9
			l-0.9,0c-0.2-0.3-0.4-0.6-0.7-1c-0.3-0.3-0.5-0.7-0.8-1c-0.3-0.3-0.6-0.6-0.9-0.8c-0.3-0.2-0.5-0.4-0.7-0.5l0,3.3l-0.8,0l0-3.3
			c-0.2,0.1-0.5,0.3-0.7,0.5c-0.3,0.2-0.6,0.5-0.9,0.8c-0.3,0.3-0.6,0.6-0.8,1c-0.3,0.3-0.5,0.7-0.7,1l-0.9,0
			c0.2-0.3,0.4-0.6,0.6-0.9c0.2-0.3,0.5-0.7,0.8-1c0.3-0.3,0.6-0.6,0.9-0.9c0.3-0.3,0.6-0.5,0.9-0.8c-0.2-0.2-0.4-0.5-0.7-0.7
			c-0.2-0.3-0.5-0.5-0.7-0.8c-0.2-0.3-0.5-0.6-0.7-0.8c-0.2-0.3-0.5-0.5-0.6-0.8l1,0c0.4,0.4,0.8,0.9,1.2,1.4c0.5,0.5,1,1.1,1.5,1.7
			l0-3.1l0.8,0l0,3.1c0.5-0.6,1-1.2,1.5-1.7c0.5-0.5,0.9-1,1.2-1.4H160z"/>
		<path class="st5" d="M161.1,38.5c0-0.6,0.1-1.1,0.3-1.5c0.2-0.4,0.4-0.8,0.7-1.1c0.3-0.3,0.6-0.5,0.9-0.7c0.4-0.1,0.7-0.2,1.1-0.2
			c0.8,0,1.5,0.3,2,0.8c0.5,0.5,0.7,1.4,0.7,2.5c0,0.1,0,0.1,0,0.2c0,0.1,0,0.1,0,0.2l-4.7,0c0,0.8,0.2,1.5,0.6,1.9
			c0.4,0.4,1,0.7,1.8,0.7c0.5,0,0.8,0,1.1-0.1c0.3-0.1,0.5-0.2,0.6-0.2l0.2,0.7c-0.1,0.1-0.3,0.2-0.7,0.2c-0.3,0.1-0.7,0.1-1.2,0.1
			c-0.6,0-1.1-0.1-1.5-0.3c-0.4-0.2-0.8-0.4-1-0.7c-0.3-0.3-0.5-0.7-0.6-1.1C161.2,39.5,161.1,39,161.1,38.5z M165.9,38
			c0-0.7-0.2-1.2-0.5-1.6c-0.3-0.4-0.8-0.6-1.3-0.6c-0.3,0-0.6,0.1-0.8,0.2c-0.2,0.1-0.4,0.3-0.6,0.5c-0.2,0.2-0.3,0.4-0.4,0.7
			c-0.1,0.3-0.2,0.5-0.2,0.8L165.9,38z"/>
		<path class="st5" d="M170.6,35.8v0.3c0,0.3,0,0.5,0,0.9c0,0.3,0,0.6-0.1,0.9c0,0.3-0.1,0.6-0.1,1c-0.1,0.3-0.1,0.6-0.2,0.9
			c-0.1,0.3-0.2,0.6-0.4,0.8c-0.1,0.3-0.3,0.5-0.5,0.7c-0.2,0.2-0.4,0.4-0.7,0.5c-0.3,0.1-0.5,0.2-0.9,0.2l-0.1-0.7
			c0.4-0.1,0.8-0.3,1-0.5c0.3-0.3,0.5-0.6,0.7-1.1c0.2-0.5,0.3-1,0.3-1.6c0-0.6,0.1-1.3,0.1-2v-0.8l4.1,0l0,6.7h-0.8l0-6L170.6,35.8
			z"/>
		<path class="st5" d="M184.5,38.5c0,0.5-0.1,1-0.2,1.4c-0.1,0.4-0.4,0.8-0.6,1.1c-0.3,0.3-0.6,0.5-0.9,0.7
			c-0.4,0.2-0.8,0.3-1.2,0.3c-0.4,0-0.8-0.1-1.2-0.2c-0.4-0.2-0.7-0.4-0.9-0.7c-0.3-0.3-0.5-0.6-0.6-1c-0.2-0.4-0.2-0.9-0.3-1.4H177
			l0,3.1l-0.8,0l0-6.7l0.8,0l0,2.9h1.5c0-0.5,0.1-0.9,0.3-1.3c0.2-0.4,0.4-0.7,0.6-1c0.3-0.3,0.6-0.5,0.9-0.6
			c0.3-0.1,0.7-0.2,1.1-0.2c0.4,0,0.8,0.1,1.2,0.3c0.4,0.2,0.7,0.4,0.9,0.7c0.3,0.3,0.5,0.7,0.6,1.1C184.4,37.5,184.5,38,184.5,38.5
			z M183.6,38.5c0-0.4,0-0.8-0.1-1.1c-0.1-0.3-0.2-0.6-0.4-0.9c-0.2-0.2-0.4-0.4-0.7-0.6c-0.3-0.1-0.5-0.2-0.9-0.2
			c-0.3,0-0.6,0.1-0.9,0.2c-0.3,0.1-0.5,0.3-0.7,0.6c-0.2,0.2-0.3,0.5-0.4,0.9c-0.1,0.3-0.1,0.7-0.1,1.1c0,0.8,0.2,1.5,0.6,2
			c0.4,0.5,0.9,0.7,1.5,0.7c0.6,0,1.2-0.2,1.5-0.7C183.4,40,183.6,39.3,183.6,38.5z"/>
		<path class="st5" d="M187,36.2c0.1-0.2,0.3-0.3,0.5-0.4c0.2-0.1,0.4-0.2,0.6-0.3c0.2-0.1,0.4-0.1,0.6-0.2c0.2,0,0.4-0.1,0.5-0.1
			c0.5,0,0.9,0.1,1.3,0.2c0.4,0.2,0.7,0.4,0.9,0.7c0.2,0.3,0.4,0.7,0.5,1.1c0.1,0.4,0.2,0.9,0.2,1.4c0,0.4,0,0.8-0.1,1.2
			c-0.1,0.4-0.3,0.8-0.5,1.1c-0.2,0.3-0.5,0.6-0.9,0.8c-0.4,0.2-0.9,0.3-1.5,0.3c-0.6,0-1.1-0.1-1.5-0.4c-0.4-0.2-0.7-0.6-0.9-1
			c-0.2-0.4-0.4-0.9-0.5-1.4c-0.1-0.5-0.1-1-0.1-1.5c0-0.7,0-1.4,0.1-2c0.1-0.7,0.3-1.2,0.5-1.7c0.3-0.5,0.7-0.9,1.2-1.3
			c0.5-0.3,1.2-0.6,2.1-0.7c0.3,0,0.5-0.1,0.6-0.1c0.2,0,0.3,0,0.4-0.1c0.1,0,0.2,0,0.3-0.1c0.1,0,0.2,0,0.2-0.1l0.1,0.8
			c-0.1,0-0.2,0.1-0.4,0.1c-0.2,0-0.6,0.1-1,0.1c-0.5,0.1-1,0.2-1.4,0.3c-0.4,0.2-0.7,0.4-1,0.6c-0.3,0.3-0.5,0.6-0.6,1
			C187.2,35.1,187.1,35.6,187,36.2z M187,37.1c0,0.1,0,0.2,0,0.3c0,0.2,0,0.3,0,0.4c0,0.4,0,0.8,0.1,1.2c0.1,0.4,0.2,0.8,0.3,1.1
			c0.2,0.3,0.4,0.6,0.7,0.8c0.3,0.2,0.6,0.3,1.1,0.3c0.4,0,0.7-0.1,1-0.2c0.3-0.1,0.5-0.3,0.7-0.6c0.2-0.2,0.3-0.5,0.4-0.9
			c0.1-0.3,0.1-0.7,0.1-1c0-0.3,0-0.7-0.1-1c-0.1-0.3-0.2-0.6-0.3-0.8c-0.2-0.2-0.4-0.4-0.7-0.6c-0.3-0.1-0.7-0.2-1.1-0.2
			c-0.2,0-0.4,0-0.6,0.1c-0.2,0.1-0.4,0.2-0.6,0.3c-0.2,0.1-0.3,0.2-0.5,0.4C187.1,36.8,187,37,187,37.1z"/>
		<path class="st5" d="M199.3,41.9l-0.8,0l0-3.1l-3.7,0l0,3.1h-0.8l0-6.7h0.8l0,2.9l3.7,0l0-2.9l0.8,0L199.3,41.9z"/>
		<path class="st5" d="M201.5,35.2h0.8l0,2.7c0.2,0,0.4-0.1,0.7-0.1c0.3,0,0.6-0.1,0.9-0.1c0.3,0,0.7,0,1,0.1
			c0.3,0.1,0.6,0.2,0.8,0.4c0.2,0.2,0.4,0.4,0.6,0.7c0.1,0.3,0.2,0.6,0.2,1c0,0.4-0.1,0.7-0.2,1c-0.1,0.3-0.3,0.5-0.6,0.7
			c-0.2,0.2-0.5,0.3-0.9,0.4c-0.3,0.1-0.7,0.1-1.1,0.1c-0.2,0-0.5,0-0.7,0c-0.2,0-0.4,0-0.7-0.1c-0.2,0-0.4-0.1-0.6-0.1
			c-0.2,0-0.3-0.1-0.4-0.1L201.5,35.2z M203.8,41.3c0.5,0,1-0.1,1.3-0.3c0.3-0.2,0.5-0.6,0.5-1.1c0-0.2,0-0.5-0.1-0.6
			c-0.1-0.2-0.2-0.3-0.4-0.5c-0.2-0.1-0.3-0.2-0.6-0.3c-0.2-0.1-0.4-0.1-0.7-0.1c-0.3,0-0.5,0-0.8,0c-0.3,0-0.5,0.1-0.8,0.2l0,2.5
			c0.1,0,0.3,0.1,0.6,0.1C203.2,41.2,203.5,41.3,203.8,41.3z M208.8,41.9H208l0-6.7h0.8L208.8,41.9z"/>
		<path class="st5" d="M215.6,36.2c-0.3,0.3-0.6,0.7-0.9,1.2c-0.3,0.5-0.7,1-1,1.5c-0.4,0.5-0.7,1.1-1,1.6c-0.3,0.5-0.6,1-0.8,1.4
			l-0.8,0l0-6.7l0.8,0l0,5.4c0.2-0.4,0.5-0.8,0.8-1.3c0.3-0.5,0.6-1,1-1.5c0.3-0.5,0.7-1,1-1.4c0.4-0.5,0.7-0.8,1-1.2h0.8l0,6.7
			h-0.8L215.6,36.2z M213.8,34c-0.5,0-0.9-0.1-1.2-0.4c-0.3-0.3-0.5-0.7-0.6-1.1l0.7-0.2c0.1,0.3,0.2,0.5,0.3,0.7
			c0.2,0.2,0.4,0.3,0.8,0.3c0.3,0,0.6-0.1,0.8-0.3c0.2-0.2,0.3-0.4,0.3-0.7l0.7,0.2c-0.1,0.5-0.3,0.9-0.6,1.1
			C214.6,33.9,214.2,34,213.8,34z"/>
		<path class="st5" d="M90.2,56.5c-0.1-0.1-0.1-0.3-0.2-0.5c-0.1-0.2-0.2-0.5-0.3-0.8c-0.1-0.3-0.3-0.6-0.4-0.9
			c-0.1-0.3-0.3-0.6-0.4-0.9c-0.1-0.3-0.3-0.6-0.4-0.8c-0.1-0.3-0.2-0.5-0.3-0.6c-0.1,1-0.2,1.9-0.2,2.8c-0.1,0.9-0.1,1.8-0.1,2.7
			l-0.8,0c0-1.1,0.1-2.2,0.2-3.4c0.1-1.1,0.2-2.2,0.3-3.3h0.9c0.1,0.2,0.3,0.4,0.4,0.8c0.2,0.3,0.4,0.7,0.6,1.2
			c0.2,0.4,0.4,0.9,0.7,1.4c0.2,0.5,0.5,1,0.7,1.5c0.2-0.5,0.5-1,0.7-1.5c0.2-0.5,0.5-1,0.7-1.4c0.2-0.4,0.4-0.8,0.6-1.2
			c0.2-0.3,0.3-0.6,0.4-0.8h0.9c0.1,1.1,0.2,2.2,0.3,3.3c0.1,1.1,0.1,2.3,0.2,3.4h-0.8c0-0.9-0.1-1.8-0.1-2.7
			c-0.1-0.9-0.1-1.8-0.2-2.8c-0.1,0.2-0.2,0.4-0.3,0.6c-0.1,0.3-0.3,0.5-0.4,0.8c-0.1,0.3-0.3,0.6-0.4,0.9c-0.1,0.3-0.3,0.6-0.4,0.9
			c-0.1,0.3-0.2,0.5-0.3,0.8c-0.1,0.2-0.2,0.4-0.2,0.5L90.2,56.5z"/>
		<path class="st5" d="M98.4,50.5c0.4,0,0.8,0.1,1.1,0.2c0.3,0.1,0.6,0.3,0.7,0.5c0.2,0.2,0.3,0.5,0.4,0.8c0.1,0.3,0.1,0.6,0.1,1
			l0,4.2c-0.1,0-0.2,0.1-0.4,0.1c-0.2,0-0.4,0.1-0.6,0.1c-0.2,0-0.5,0.1-0.7,0.1c-0.3,0-0.5,0-0.8,0c-0.4,0-0.7,0-1-0.1
			c-0.3-0.1-0.6-0.2-0.8-0.4c-0.2-0.2-0.4-0.4-0.5-0.7c-0.1-0.3-0.2-0.6-0.2-1c0-0.4,0.1-0.7,0.2-0.9c0.1-0.3,0.3-0.5,0.6-0.6
			c0.3-0.2,0.5-0.3,0.9-0.4c0.3-0.1,0.7-0.1,1.1-0.1c0.1,0,0.2,0,0.4,0c0.1,0,0.3,0,0.4,0.1c0.1,0,0.2,0,0.3,0.1
			c0.1,0,0.2,0,0.2,0.1l0-0.4c0-0.2,0-0.5-0.1-0.7c0-0.2-0.1-0.4-0.2-0.6c-0.1-0.2-0.3-0.3-0.5-0.4c-0.2-0.1-0.5-0.2-0.8-0.2
			c-0.5,0-0.9,0-1.1,0.1c-0.2,0.1-0.4,0.1-0.5,0.2l-0.1-0.7c0.1-0.1,0.4-0.1,0.7-0.2C97.6,50.6,98,50.5,98.4,50.5z M98.5,56.8
			c0.3,0,0.6,0,0.9,0c0.2,0,0.5,0,0.6-0.1l0-2.4c-0.1,0-0.2-0.1-0.5-0.1c-0.2,0-0.5-0.1-0.9-0.1c-0.2,0-0.4,0-0.7,0
			c-0.2,0-0.4,0.1-0.6,0.2c-0.2,0.1-0.3,0.2-0.5,0.4c-0.1,0.2-0.2,0.4-0.2,0.7c0,0.3,0,0.5,0.1,0.6c0.1,0.2,0.2,0.3,0.4,0.4
			c0.2,0.1,0.3,0.2,0.5,0.2C98,56.8,98.2,56.8,98.5,56.8z"/>
		<path class="st5" d="M106.8,51.4l-3,0l0,6l-0.8,0l0-6.7l3.8,0L106.8,51.4z"/>
		<path class="st5" d="M110.2,50.5c0.4,0,0.8,0.1,1.1,0.2c0.3,0.1,0.6,0.3,0.7,0.5c0.2,0.2,0.3,0.5,0.4,0.8c0.1,0.3,0.1,0.6,0.1,1
			l0,4.2c-0.1,0-0.2,0.1-0.4,0.1c-0.2,0-0.4,0.1-0.6,0.1c-0.2,0-0.5,0.1-0.7,0.1c-0.3,0-0.5,0-0.8,0c-0.4,0-0.7,0-1-0.1
			c-0.3-0.1-0.6-0.2-0.8-0.4c-0.2-0.2-0.4-0.4-0.5-0.7c-0.1-0.3-0.2-0.6-0.2-1c0-0.4,0.1-0.7,0.2-0.9c0.1-0.3,0.3-0.5,0.6-0.6
			c0.3-0.2,0.6-0.3,0.9-0.4c0.3-0.1,0.7-0.1,1.1-0.1c0.1,0,0.2,0,0.4,0c0.1,0,0.3,0,0.4,0.1c0.1,0,0.2,0,0.3,0.1
			c0.1,0,0.2,0,0.2,0.1v-0.4c0-0.2,0-0.5-0.1-0.7c0-0.2-0.1-0.4-0.2-0.6c-0.1-0.2-0.3-0.3-0.5-0.4c-0.2-0.1-0.5-0.2-0.8-0.2
			c-0.5,0-0.9,0-1.1,0.1c-0.2,0.1-0.4,0.1-0.5,0.2l-0.1-0.7c0.1-0.1,0.4-0.1,0.7-0.2C109.4,50.6,109.8,50.5,110.2,50.5z M110.3,56.8
			c0.3,0,0.6,0,0.9,0c0.2,0,0.5,0,0.6-0.1l0-2.4c-0.1,0-0.2-0.1-0.5-0.1c-0.2,0-0.5-0.1-0.9-0.1c-0.2,0-0.4,0-0.6,0
			c-0.2,0-0.4,0.1-0.6,0.2c-0.2,0.1-0.3,0.2-0.5,0.4c-0.1,0.2-0.2,0.4-0.2,0.7c0,0.3,0,0.5,0.1,0.6c0.1,0.2,0.2,0.3,0.4,0.4
			c0.2,0.1,0.3,0.2,0.5,0.2C109.8,56.8,110,56.8,110.3,56.8z"/>
		<path class="st5" d="M116.3,56.8c0.6,0,1.1-0.1,1.4-0.3c0.3-0.2,0.5-0.5,0.5-0.9c0-0.3-0.1-0.5-0.2-0.7c-0.1-0.2-0.3-0.3-0.5-0.4
			c-0.2-0.1-0.4-0.2-0.6-0.2c-0.2,0-0.4,0-0.6,0h-0.9v-0.7h0.9c0.2,0,0.3,0,0.5,0c0.2,0,0.4-0.1,0.6-0.2c0.2-0.1,0.3-0.2,0.4-0.3
			c0.1-0.1,0.2-0.3,0.2-0.6c0-0.2,0-0.4-0.1-0.6c-0.1-0.1-0.2-0.3-0.4-0.3c-0.2-0.1-0.4-0.1-0.6-0.2c-0.2,0-0.4-0.1-0.6-0.1
			c-0.5,0-0.9,0.1-1.2,0.1c-0.3,0.1-0.5,0.2-0.6,0.2l-0.2-0.8c0.1-0.1,0.4-0.1,0.7-0.2c0.3-0.1,0.8-0.1,1.3-0.1c0.9,0,1.5,0.2,2,0.5
			c0.4,0.3,0.7,0.8,0.7,1.4c0,0.4-0.1,0.7-0.3,0.9c-0.2,0.2-0.5,0.4-0.8,0.5c0.4,0.1,0.8,0.3,1,0.6c0.3,0.3,0.4,0.7,0.4,1.1
			c0,0.7-0.2,1.2-0.7,1.5c-0.5,0.3-1.2,0.5-2.1,0.5c-0.6,0-1.1-0.1-1.5-0.2c-0.4-0.1-0.6-0.2-0.7-0.2l0.2-0.8c0,0,0.1,0,0.2,0.1
			c0.1,0,0.2,0.1,0.4,0.1c0.2,0,0.4,0.1,0.6,0.1C115.8,56.8,116,56.8,116.3,56.8z"/>
		<path class="st5" d="M125.5,51.8c-0.3,0.3-0.6,0.7-0.9,1.2c-0.3,0.5-0.7,1-1,1.5c-0.3,0.5-0.7,1.1-1,1.6c-0.3,0.5-0.6,1-0.8,1.4
			l-0.8,0l0-6.7l0.8,0l0,5.4c0.2-0.4,0.5-0.8,0.8-1.3c0.3-0.5,0.6-1,1-1.5c0.3-0.5,0.7-1,1-1.4c0.4-0.5,0.7-0.8,1-1.2l0.8,0l0,6.7
			l-0.8,0L125.5,51.8z"/>
		<path class="st5" d="M134,57.4l-0.8,0l0-3.1l-3.7,0l0,3.1h-0.8l0-6.7h0.8l0,2.9l3.7,0l0-2.9l0.8,0L134,57.4z"/>
		<path class="st5" d="M143,51.4l-3,0l0,6l-0.8,0l0-6.7l3.8,0L143,51.4z"/>
		<path class="st5" d="M146.4,50.6c0.4,0,0.8,0.1,1.1,0.2c0.3,0.1,0.6,0.3,0.7,0.5c0.2,0.2,0.3,0.5,0.4,0.8s0.1,0.6,0.1,1l0,4.2
			c-0.1,0-0.2,0.1-0.4,0.1c-0.2,0-0.4,0.1-0.6,0.1c-0.2,0-0.5,0.1-0.7,0.1c-0.3,0-0.5,0-0.8,0c-0.4,0-0.7,0-1-0.1
			c-0.3-0.1-0.6-0.2-0.8-0.4c-0.2-0.2-0.4-0.4-0.5-0.7c-0.1-0.3-0.2-0.6-0.2-1c0-0.4,0.1-0.7,0.2-0.9c0.1-0.3,0.3-0.5,0.6-0.6
			c0.3-0.2,0.6-0.3,0.9-0.4c0.3-0.1,0.7-0.1,1.1-0.1c0.1,0,0.2,0,0.4,0c0.1,0,0.3,0,0.4,0.1c0.1,0,0.2,0,0.3,0.1
			c0.1,0,0.2,0,0.2,0.1l0-0.4c0-0.2,0-0.5-0.1-0.7c0-0.2-0.1-0.4-0.2-0.6c-0.1-0.2-0.3-0.3-0.5-0.4c-0.2-0.1-0.5-0.2-0.8-0.2
			c-0.5,0-0.9,0-1.1,0.1c-0.2,0.1-0.4,0.1-0.5,0.2l-0.1-0.7c0.1-0.1,0.4-0.1,0.7-0.2C145.6,50.6,145.9,50.6,146.4,50.6z M146.4,56.8
			c0.3,0,0.6,0,0.9,0c0.2,0,0.5,0,0.6-0.1l0-2.4c-0.1,0-0.2-0.1-0.5-0.1c-0.2,0-0.5-0.1-0.9-0.1c-0.2,0-0.4,0-0.6,0
			c-0.2,0-0.4,0.1-0.6,0.2c-0.2,0.1-0.3,0.2-0.5,0.4c-0.1,0.2-0.2,0.4-0.2,0.7c0,0.3,0,0.5,0.1,0.6c0.1,0.2,0.2,0.3,0.4,0.4
			c0.2,0.1,0.3,0.2,0.5,0.2C145.9,56.8,146.2,56.8,146.4,56.8z"/>
		<path class="st5" d="M156.1,56.7l0.8,0l0,2.6l-0.8,0l0-1.9l-5.2,0v1.9l-0.8,0l0-2.6l0.7,0c0.3-0.5,0.5-0.9,0.7-1.3
			c0.2-0.4,0.3-0.8,0.4-1.3c0.1-0.4,0.2-0.9,0.2-1.4c0-0.5,0-1,0-1.6v-0.5l4.1,0L156.1,56.7z M152.8,51.4c0,0.5,0,0.9,0,1.4
			c0,0.5-0.1,0.9-0.2,1.3c-0.1,0.4-0.2,0.9-0.4,1.3c-0.2,0.4-0.4,0.9-0.6,1.3l3.7,0l0-5.3L152.8,51.4z"/>
		<path class="st5" d="M166.4,50.7c-0.2,0.2-0.4,0.5-0.6,0.8c-0.2,0.3-0.5,0.6-0.7,0.8c-0.2,0.3-0.5,0.6-0.7,0.8
			c-0.2,0.3-0.5,0.5-0.7,0.7c0.3,0.2,0.6,0.5,0.9,0.8c0.3,0.3,0.6,0.6,0.9,0.9c0.3,0.3,0.5,0.6,0.8,1c0.2,0.3,0.4,0.6,0.6,0.9
			l-0.9,0c-0.2-0.3-0.4-0.6-0.7-1c-0.3-0.3-0.5-0.7-0.8-1c-0.3-0.3-0.6-0.6-0.9-0.8c-0.3-0.2-0.5-0.4-0.7-0.5l0,3.3l-0.8,0l0-3.3
			c-0.2,0.1-0.5,0.3-0.7,0.5c-0.3,0.2-0.6,0.5-0.9,0.8c-0.3,0.3-0.6,0.6-0.8,1c-0.3,0.3-0.5,0.7-0.7,1l-0.9,0
			c0.2-0.3,0.4-0.6,0.6-0.9c0.2-0.3,0.5-0.7,0.8-1c0.3-0.3,0.6-0.6,0.9-0.9c0.3-0.3,0.6-0.5,0.9-0.8c-0.2-0.2-0.4-0.5-0.7-0.7
			c-0.2-0.3-0.5-0.5-0.7-0.8c-0.2-0.3-0.5-0.6-0.7-0.8c-0.2-0.3-0.5-0.5-0.6-0.8l1,0c0.4,0.4,0.8,0.9,1.2,1.4c0.5,0.5,1,1.1,1.5,1.7
			l0-3.1l0.8,0l0,3.1c0.5-0.6,1-1.2,1.5-1.7c0.5-0.5,0.9-1,1.2-1.4H166.4z"/>
		<path class="st5" d="M167.5,54.1c0-0.6,0.1-1.1,0.3-1.5s0.4-0.8,0.7-1.1c0.3-0.3,0.6-0.5,0.9-0.7c0.4-0.1,0.7-0.2,1.1-0.2
			c0.8,0,1.5,0.3,2,0.8c0.5,0.5,0.7,1.4,0.7,2.5c0,0.1,0,0.1,0,0.2c0,0.1,0,0.1,0,0.2l-4.7,0c0,0.8,0.2,1.5,0.6,1.9
			c0.4,0.4,1,0.7,1.8,0.7c0.5,0,0.8,0,1.1-0.1c0.3-0.1,0.5-0.2,0.6-0.2l0.2,0.7c-0.1,0.1-0.3,0.2-0.7,0.2c-0.3,0.1-0.7,0.1-1.2,0.1
			c-0.6,0-1.1-0.1-1.5-0.3c-0.4-0.2-0.8-0.4-1-0.7c-0.3-0.3-0.5-0.7-0.6-1.1C167.6,55.1,167.5,54.6,167.5,54.1z M172.3,53.6
			c0-0.7-0.2-1.2-0.5-1.6c-0.3-0.4-0.8-0.6-1.3-0.6c-0.3,0-0.6,0.1-0.8,0.2c-0.2,0.1-0.4,0.3-0.6,0.5c-0.2,0.2-0.3,0.4-0.4,0.7
			c-0.1,0.3-0.2,0.5-0.2,0.8L172.3,53.6z"/>
		<path class="st5" d="M179.4,50.7l0,0.7l-2.2,0l0,6l-0.8,0l0-6l-2.2,0l0-0.7L179.4,50.7z"/>
		<path class="st5" d="M186.4,54.1c0,0.5-0.1,1-0.2,1.4c-0.2,0.4-0.4,0.8-0.6,1.1c-0.3,0.3-0.6,0.5-1,0.7c-0.4,0.2-0.8,0.3-1.2,0.3
			c-0.5,0-0.9-0.1-1.2-0.3c-0.4-0.2-0.7-0.4-1-0.7c-0.3-0.3-0.5-0.7-0.6-1.1c-0.2-0.4-0.2-0.9-0.2-1.4s0.1-1,0.2-1.4
			c0.2-0.4,0.4-0.8,0.6-1.1c0.3-0.3,0.6-0.5,1-0.7c0.4-0.2,0.8-0.3,1.2-0.3c0.5,0,0.9,0.1,1.2,0.3c0.4,0.2,0.7,0.4,1,0.7
			c0.3,0.3,0.5,0.7,0.6,1.1C186.3,53.1,186.4,53.6,186.4,54.1z M185.5,54.1c0-0.8-0.2-1.5-0.6-2c-0.4-0.5-0.9-0.7-1.6-0.7
			c-0.7,0-1.2,0.2-1.6,0.7c-0.4,0.5-0.6,1.2-0.6,2c0,0.8,0.2,1.5,0.6,2c0.4,0.5,0.9,0.7,1.6,0.7c0.7,0,1.2-0.2,1.6-0.7
			C185.3,55.6,185.5,54.9,185.5,54.1z"/>
		<path class="st5" d="M190.4,50.6c0.3,0,0.6,0,0.9,0c0.3,0,0.6,0.1,0.9,0.2c0.3,0.1,0.5,0.3,0.7,0.5c0.2,0.2,0.3,0.6,0.3,1
			c0,0.3-0.1,0.6-0.3,0.9c-0.2,0.3-0.5,0.4-0.8,0.6c0.5,0.1,0.8,0.3,1.1,0.6c0.2,0.3,0.3,0.6,0.3,1.1c0,0.5-0.1,0.8-0.3,1.1
			c-0.2,0.3-0.4,0.5-0.7,0.6c-0.3,0.1-0.6,0.2-1,0.3c-0.4,0-0.8,0.1-1.2,0.1c-0.5,0-0.9,0-1.2-0.1c-0.4-0.1-0.7-0.1-0.9-0.2l0-6.4
			c0.2-0.1,0.5-0.1,0.9-0.2C189.5,50.6,189.9,50.6,190.4,50.6z M189.1,53.6h1.5c0.5,0,0.9-0.1,1.3-0.3c0.3-0.2,0.5-0.5,0.5-0.9
			c0-0.3-0.1-0.5-0.2-0.6c-0.1-0.1-0.3-0.3-0.4-0.3c-0.2-0.1-0.4-0.1-0.6-0.1c-0.2,0-0.5,0-0.7,0c-0.3,0-0.6,0-0.8,0
			c-0.3,0-0.4,0.1-0.5,0.1L189.1,53.6z M189.1,54.3l0,2.5c0,0,0.1,0,0.2,0c0.1,0,0.2,0,0.3,0c0.1,0,0.3,0,0.4,0c0.1,0,0.3,0,0.4,0
			c0.3,0,0.6,0,0.8-0.1c0.3,0,0.5-0.1,0.7-0.2c0.2-0.1,0.4-0.2,0.5-0.4c0.1-0.2,0.2-0.4,0.2-0.7c0-0.2,0-0.4-0.1-0.6
			c-0.1-0.2-0.2-0.3-0.4-0.4c-0.2-0.1-0.4-0.2-0.6-0.2c-0.2,0-0.5-0.1-0.8-0.1H189.1z"/>
	</g>
</g>
</svg>
